<svg xmlns="http://www.w3.org/2000/svg" width="22" height="10" fill="none"><path fill="#6461FC" fill-rule="evenodd" d="m11.448 1.787-1.46.318V.904l1.46-.312v1.195Zm-5.936-.512-1.42.307-.005 4.716c0 .872.646 1.513 1.507 1.513.477 0 .826-.088 1.018-.194V6.422c-.186.076-1.105.347-1.105-.524v-2.09h1.105V2.552H5.507l.005-1.278ZM2.074 3.73c-.308 0-.494.088-.494.318 0 .25.32.36.717.498.649.223 1.502.516 1.505 1.604 0 1.054-.832 1.66-2.042 1.66-.5 0-1.047-.1-1.589-.335V6.073c.49.271 1.106.472 1.589.472.326 0 .558-.089.558-.36 0-.277-.347-.404-.766-.558C.913 5.394.107 5.1.107 4.12c0-1.043.786-1.667 1.967-1.667.483 0 .96.077 1.443.271v1.384c-.442-.242-1-.377-1.443-.377Zm16.88-1.278c1.378 0 2.1 1.19 2.1 2.697 0 .081-.004.218-.008.333l-.004.191h-2.845c.064.695.564.895 1.129.895a3.06 3.06 0 0 0 1.425-.324v1.178c-.396.224-.92.383-1.612.383-1.42 0-2.409-.895-2.409-2.668 0-1.495.838-2.685 2.223-2.685Zm-.008 1.196c-.366 0-.768.277-.768.943h1.501c0-.666-.378-.943-.733-.943Zm-10.523-.66-.093-.436H7.073v5.152h1.454V4.213c.344-.454.926-.371 1.106-.307V2.552c-.186-.07-.867-.2-1.21.436Zm1.565-.436h1.46v5.153h-1.46V2.552Zm4.498-.1c-.57 0-.936.271-1.14.46l-.076-.366h-1.28v6.866l1.455-.312.006-1.666c.21.153.518.37 1.03.37 1.041 0 1.99-.847 1.99-2.714-.006-1.707-.966-2.638-1.985-2.638Zm-.348 4.056c-.344 0-.547-.123-.687-.277l-.006-2.184c.152-.17.361-.289.693-.289.53 0 .896.6.896 1.372 0 .79-.361 1.378-.896 1.378Z" clip-rule="evenodd"/></svg>