<svg xmlns="http://www.w3.org/2000/svg" width="24" height="24" fill="none"><g clip-path="url(#a)"><path fill="#000" d="M21.955 0H1.775A1.748 1.748 0 0 0 .027 1.748v20.18a1.748 1.748 0 0 0 1.748 1.748h20.18a1.748 1.748 0 0 0 1.748-1.748V1.748A1.748 1.748 0 0 0 21.955 0ZM7.084 20.169h-3.56V8.862h3.56v11.307ZM5.302 7.295a2.044 2.044 0 1 1 2.055-2.042 2.014 2.014 0 0 1-2.055 2.042ZM20.204 20.18h-3.558v-6.177c0-1.822-.774-2.385-1.774-2.385-1.055 0-2.091.796-2.091 2.43v6.132h-3.56V8.87h3.424v1.567h.046c.343-.695 1.547-1.884 3.383-1.884 1.986 0 4.132 1.179 4.132 4.631l-.002 6.995Z"/></g><defs><clipPath id="a"><path fill="#fff" d="M.027 0h23.676v23.676H.027z"/></clipPath></defs></svg>