<svg xmlns="http://www.w3.org/2000/svg" width="22" height="9" fill="none"><path fill="#3C4043" fill-rule="evenodd" d="M10.08 7.13V4.614h1.28c.525 0 .968-.178 1.33-.53l.086-.09a1.831 1.831 0 0 0-.086-2.536 1.814 1.814 0 0 0-1.33-.54H9.306V7.13h.775Zm.001-3.28V1.68h1.3c.28 0 .544.11.742.307.419.417.429 1.11.024 1.542a1 1 0 0 1-.766.322h-1.3Zm6.311-.64c-.332-.312-.784-.47-1.357-.47-.737 0-1.29.277-1.657.827l.684.44c.25-.376.592-.564 1.026-.564.274 0 .539.104.746.292a.943.943 0 0 1 .318.709v.183c-.299-.168-.675-.257-1.137-.257-.539 0-.972.129-1.295.391-.322.263-.486.61-.486 1.05-.01.402.159.784.457 1.041.303.278.689.417 1.141.417.535 0 .958-.243 1.281-.729h.034v.59h.741V4.508c0-.55-.163-.986-.496-1.298ZM14.29 6.348a.65.65 0 0 1-.255-.52c0-.233.106-.427.313-.58.212-.154.477-.233.79-.233.433-.005.77.094 1.011.292 0 .337-.13.63-.385.877a1.215 1.215 0 0 1-.872.372.93.93 0 0 1-.602-.208Zm4.264 2.65 2.59-6.12h-.842l-1.2 3.053h-.014L17.86 2.878h-.843l1.7 3.98-.963 2.14h.799Z" clip-rule="evenodd"/><path fill="#4285F4" d="M7.403 4.067c0-.243-.019-.485-.058-.723H4.076v1.372H5.95a1.656 1.656 0 0 1-.693 1.086v.892h1.117c.655-.62 1.03-1.536 1.03-2.627Z"/><path fill="#34A853" d="M4.076 7.556c.935 0 1.724-.317 2.297-.862l-1.117-.892c-.313.218-.713.342-1.18.342-.905 0-1.67-.63-1.945-1.472H.981v.922c.587 1.204 1.786 1.962 3.095 1.962Z"/><path fill="#FBBC04" d="M2.132 4.671a2.213 2.213 0 0 1 0-1.367v-.917H.982a3.63 3.63 0 0 0 0 3.201l1.15-.917Z"/><path fill="#EA4335" d="M4.076 1.83a1.84 1.84 0 0 1 1.33.536l.991-1.021a3.294 3.294 0 0 0-2.32-.927c-1.31 0-2.51.763-3.097 1.968l1.151.921c.275-.847 1.04-1.476 1.945-1.476Z"/></svg>