<svg xmlns="http://www.w3.org/2000/svg" width="24" height="24" fill="none"><g fill="#000100" clip-path="url(#a)"><path d="M11.838 2.132c3.163 0 3.537.014 4.781.07 1.156.05 1.78.244 2.197.406.55.213.948.472 1.36.883.415.416.67.81.882 1.36.162.416.357 1.045.407 2.196.056 1.249.07 1.623.07 4.782 0 3.162-.014 3.537-.07 4.781-.05 1.156-.245 1.78-.407 2.196a3.66 3.66 0 0 1-.883 1.36 3.64 3.64 0 0 1-1.36.883c-.416.162-1.044.356-2.196.407-1.248.056-1.623.07-4.781.07-3.163 0-3.538-.014-4.782-.07-1.156-.05-1.78-.245-2.196-.407a3.662 3.662 0 0 1-1.36-.883 3.64 3.64 0 0 1-.883-1.36c-.162-.416-.356-1.045-.407-2.196-.055-1.249-.069-1.623-.069-4.781 0-3.163.014-3.538.07-4.782.05-1.156.244-1.78.406-2.196A3.66 3.66 0 0 1 3.5 3.49a3.64 3.64 0 0 1 1.36-.883c.416-.162 1.045-.356 2.196-.407 1.244-.055 1.619-.07 4.782-.07Zm0-2.132C8.624 0 8.222.014 6.959.07 5.702.124 4.837.327 4.088.62a5.778 5.778 0 0 0-2.1 1.368A5.8 5.8 0 0 0 .62 4.083C.328 4.837.125 5.697.07 6.955.013 8.222 0 8.625 0 11.838c0 3.214.014 3.616.07 4.878.055 1.258.258 2.123.55 2.872a5.777 5.777 0 0 0 1.368 2.1 5.787 5.787 0 0 0 2.095 1.363c.754.292 1.614.495 2.872.55 1.262.056 1.664.07 4.878.07 3.214 0 3.616-.014 4.879-.07 1.258-.055 2.122-.258 2.871-.55a5.786 5.786 0 0 0 2.095-1.364 5.786 5.786 0 0 0 1.364-2.095c.291-.753.495-1.613.55-2.871.056-1.262.07-1.665.07-4.879 0-3.213-.014-3.616-.07-4.878-.055-1.258-.258-2.123-.55-2.872a5.546 5.546 0 0 0-1.355-2.104A5.786 5.786 0 0 0 19.592.624C18.84.333 17.98.13 16.722.074 15.454.014 15.05 0 11.838 0Z"/><path d="M11.839 5.758a6.082 6.082 0 0 0-6.081 6.08 6.082 6.082 0 0 0 6.08 6.081 6.082 6.082 0 0 0 6.081-6.08 6.082 6.082 0 0 0-6.08-6.081Zm0 10.025a3.945 3.945 0 1 1 0-7.89 3.945 3.945 0 0 1 0 7.89Zm7.739-10.266a1.42 1.42 0 1 1-2.84 0 1.42 1.42 0 0 1 2.84 0Z"/></g><defs><clipPath id="a"><path fill="#fff" d="M0 0h23.676v23.676H0z"/></clipPath></defs></svg>