<svg xmlns="http://www.w3.org/2000/svg" width="21" height="10" fill="none"><path fill="#000" fill-rule="evenodd" d="M3.107 2.443c.386.033.772-.198 1.013-.492.238-.301.394-.706.354-1.119-.342.017-.764.231-1.005.533-.222.26-.41.681-.362 1.078Zm4.592 5.319v-6.44h2.353c1.214 0 2.063.86 2.063 2.115 0 1.256-.865 2.123-2.096 2.123H8.672v2.202h-.973Zm-3.23-5.24c-.34-.02-.65.104-.9.205-.162.065-.299.12-.403.12-.116 0-.258-.058-.418-.123-.21-.085-.449-.183-.7-.178-.575.008-1.11.343-1.403.876-.604 1.065-.157 2.643.426 3.51.286.43.627.9 1.078.884.198-.008.34-.07.488-.134.17-.074.346-.15.622-.15.266 0 .435.074.597.146.154.068.301.134.521.13.467-.008.76-.43 1.046-.86.308-.46.443-.91.464-.978l.002-.008-.01-.006a1.544 1.544 0 0 1-.899-1.411c-.007-.833.625-1.255.724-1.322l.012-.008c-.402-.611-1.03-.677-1.247-.694Zm9.424 5.29c.612 0 1.179-.318 1.436-.822h.02v.773h.901V4.557c0-.929-.724-1.528-1.838-1.528-1.034 0-1.798.607-1.826 1.442h.877c.072-.397.43-.657.921-.657.595 0 .93.285.93.81v.355l-1.216.074c-1.13.07-1.741.545-1.741 1.371 0 .835.631 1.388 1.536 1.388Zm.262-.765c-.519 0-.848-.256-.848-.648 0-.405.317-.64.925-.677l1.082-.07v.363c0 .603-.5 1.032-1.159 1.032Zm5.082.967c-.39 1.127-.836 1.499-1.786 1.499-.072 0-.313-.008-.37-.025v-.772c.06.008.21.016.286.016.43 0 .672-.186.82-.669l.089-.285-1.649-4.688h1.018l1.146 3.804h.02l1.146-3.804h.99l-1.71 4.924ZM8.673 2.165h1.122c.845 0 1.327.463 1.327 1.276 0 .814-.482 1.28-1.331 1.28H8.673V2.166Z" clip-rule="evenodd"/></svg>