<svg xmlns="http://www.w3.org/2000/svg" width="21" height="7" fill="none"><path fill="#172B85" fill-rule="evenodd" d="M5.281 6.548H3.54L2.234 1.493c-.062-.232-.194-.438-.388-.535A5.614 5.614 0 0 0 .25.423V.23h2.806c.387 0 .677.292.726.631l.677 3.647L6.2.229h1.694L5.28 6.548Zm3.582 0H7.218L8.572.228h1.645l-1.354 6.32Zm3.48-4.57c.05-.34.34-.535.678-.535a3.027 3.027 0 0 1 1.597.292l.29-1.36a4.112 4.112 0 0 0-1.5-.293c-1.596 0-2.758.875-2.758 2.09 0 .924.823 1.41 1.404 1.702.629.292.87.486.822.778 0 .437-.484.632-.967.632a4.09 4.09 0 0 1-1.693-.39l-.29 1.362a4.69 4.69 0 0 0 1.79.34c1.79.048 2.902-.826 2.902-2.139 0-1.653-2.274-1.75-2.274-2.479Zm8.03 4.57L19.069.228h-1.403a.73.73 0 0 0-.678.487L14.57 6.548h1.693l.338-.923h2.08l.194.923h1.5ZM17.909 1.93l.484 2.382h-1.355l.871-2.382Z" clip-rule="evenodd"/></svg>