<svg xmlns="http://www.w3.org/2000/svg" width="22" height="14" fill="none"><path fill="#ED0006" fill-rule="evenodd" d="M10.89 11.622a6.32 6.32 0 0 1-4.075 1.475c-3.47 0-6.282-2.766-6.282-6.178C.533 3.506 3.346.74 6.815.74a6.32 6.32 0 0 1 4.075 1.476A6.32 6.32 0 0 1 14.965.74c3.47 0 6.282 2.766 6.282 6.179 0 3.412-2.813 6.178-6.282 6.178a6.32 6.32 0 0 1-4.075-1.475Z" clip-rule="evenodd"/><path fill="#F9A000" fill-rule="evenodd" d="M10.89 11.622a6.124 6.124 0 0 0 2.208-4.703c0-1.883-.857-3.57-2.207-4.703A6.32 6.32 0 0 1 14.965.74c3.47 0 6.282 2.766 6.282 6.179 0 3.412-2.812 6.178-6.282 6.178a6.32 6.32 0 0 1-4.074-1.475Z" clip-rule="evenodd"/><path fill="#FF5E00" fill-rule="evenodd" d="M10.891 11.622a6.124 6.124 0 0 0 2.207-4.702c0-1.884-.856-3.57-2.207-4.703A6.124 6.124 0 0 0 8.684 6.92a6.12 6.12 0 0 0 2.207 4.702Z" clip-rule="evenodd"/></svg>