<svg xmlns="http://www.w3.org/2000/svg" width="21" height="7" fill="none"><path fill="#253B80" fill-rule="evenodd" d="M3.127.785H1.59a.213.213 0 0 0-.21.18L.758 4.902a.128.128 0 0 0 .127.148h.733a.213.213 0 0 0 .21-.18l.168-1.062a.213.213 0 0 1 .21-.18h.487c1.011 0 1.595-.49 1.747-1.46.07-.424.003-.757-.195-.99C4.027.92 3.64.784 3.126.784Zm.177 1.438c-.084.551-.505.551-.912.551H2.16l.163-1.029a.128.128 0 0 1 .126-.108h.106c.277 0 .539 0 .674.158.08.095.105.235.075.428Zm4.412-.018h-.735a.128.128 0 0 0-.127.108l-.032.206-.052-.074c-.159-.231-.514-.309-.868-.309-.812 0-1.506.616-1.642 1.479-.07.43.03.842.274 1.13.224.263.545.373.926.373.655 0 1.018-.42 1.018-.42l-.033.204a.128.128 0 0 0 .126.148h.663a.213.213 0 0 0 .21-.18l.398-2.517a.127.127 0 0 0-.126-.148ZM6.691 3.636a.82.82 0 0 1-.83.702c-.213 0-.384-.068-.493-.198-.109-.129-.15-.312-.115-.516a.823.823 0 0 1 .823-.708c.21 0 .379.07.49.2a.636.636 0 0 1 .125.52Zm4.202-1.43h.739c.103 0 .164.115.105.2L9.279 5.953a.213.213 0 0 1-.175.092h-.738a.128.128 0 0 1-.104-.202l.765-1.08-.814-2.388a.128.128 0 0 1 .122-.17h.726c.094 0 .177.062.204.153L9.697 3.8l1.02-1.501a.214.214 0 0 1 .176-.094Z" clip-rule="evenodd"/><path fill="#179BD7" fill-rule="evenodd" d="m18.903 4.902.63-4.009a.128.128 0 0 1 .127-.108h.709c.078 0 .139.07.126.148l-.621 3.937a.213.213 0 0 1-.211.18h-.634a.128.128 0 0 1-.126-.148ZM14.078.785h-1.536a.213.213 0 0 0-.21.18l-.621 3.937a.128.128 0 0 0 .126.148h.788a.15.15 0 0 0 .147-.126l.176-1.116a.213.213 0 0 1 .21-.18h.487c1.011 0 1.595-.49 1.747-1.46.07-.424.003-.757-.196-.99-.218-.257-.604-.393-1.118-.393Zm.177 1.438c-.084.551-.505.551-.912.551h-.232l.163-1.029a.127.127 0 0 1 .126-.108h.107c.277 0 .538 0 .674.158.08.095.105.235.074.428Zm4.412-.017h-.735a.127.127 0 0 0-.126.108l-.033.205-.051-.074c-.16-.231-.514-.308-.868-.308-.813 0-1.507.615-1.642 1.478-.07.43.03.842.274 1.13.224.264.545.374.926.374.655 0 1.018-.421 1.018-.421l-.033.204a.128.128 0 0 0 .127.148h.662a.213.213 0 0 0 .21-.18l.398-2.517a.128.128 0 0 0-.127-.147Zm-1.025 1.43a.82.82 0 0 1-.83.703c-.213 0-.384-.069-.493-.199-.109-.128-.15-.312-.116-.516a.823.823 0 0 1 .824-.708c.21 0 .379.07.49.2a.634.634 0 0 1 .125.52Z" clip-rule="evenodd"/></svg>