<svg xmlns="http://www.w3.org/2000/svg" width="25" height="24" fill="none"><g clip-path="url(#a)"><path fill="#000" d="M24.027 11.838C24.027 5.3 18.727 0 12.19 0 5.652 0 .352 5.3.352 11.838c0 5.551 3.822 10.21 8.978 11.49v-7.872H6.889v-3.618h2.44v-1.559c0-4.03 1.824-5.897 5.78-5.897.75 0 2.044.148 2.574.294v3.28a14.91 14.91 0 0 0-1.368-.045c-1.94 0-2.69.736-2.69 2.647v1.28h3.866l-.665 3.618h-3.202v8.133c5.862-.708 10.404-5.699 10.404-11.751Z"/><path fill="#fff" d="m16.826 15.456.665-3.618h-3.867v-1.28c0-1.91.75-2.646 2.69-2.646.604 0 1.089.015 1.368.044v-3.28c-.529-.146-1.823-.293-2.573-.293-3.956 0-5.78 1.867-5.78 5.897v1.558H6.89v3.618h2.44v7.872a11.858 11.858 0 0 0 4.294.262v-8.134h3.203Z"/></g><defs><clipPath id="a"><path fill="#fff" d="M.352 0h23.676v23.676H.352z"/></clipPath></defs></svg>